<svg width="1512" height="471" viewBox="0 0 1512 471" fill="none" xmlns="http://www.w3.org/2000/svg">
<g filter="url(#filter0_f_654_38)">
<path d="M1704 -140C1723 -121 1154.75 270.307 765.75 230.807C376.75 191.307 -22 440.613 -22 440.613L-22 -622C-22 -622 1685 -159 1704 -140Z" fill="#4C57E5" fill-opacity="0.7"/>
<path d="M1704 -140C1723 -121 1154.75 270.307 765.75 230.807C376.75 191.307 -22 440.613 -22 440.613L-22 -622C-22 -622 1685 -159 1704 -140Z" fill="url(#paint0_linear_654_38)" fill-opacity="0.2"/>
</g>
<path d="M1726 -153C1745 -134 1176.75 257.307 787.75 217.807C398.75 178.307 -0.00053473 427.613 -0.00053473 427.613L-0.000488281 -635C-0.000488281 -635 1707 -172 1726 -153Z" fill="#4C57E5"/>
<path d="M1726 -153C1745 -134 1176.75 257.307 787.75 217.807C398.75 178.307 -0.00053473 427.613 -0.00053473 427.613L-0.000488281 -635C-0.000488281 -635 1707 -172 1726 -153Z" fill="url(#paint1_linear_654_38)" fill-opacity="0.2"/>
<defs>
<filter id="filter0_f_654_38" x="-52.0001" y="-652" width="1786.46" height="1122.61" filterUnits="userSpaceOnUse" color-interpolation-filters="sRGB">
<feFlood flood-opacity="0" result="BackgroundImageFix"/>
<feBlend mode="normal" in="SourceGraphic" in2="BackgroundImageFix" result="shape"/>
<feGaussianBlur stdDeviation="15" result="effect1_foregroundBlur_654_38"/>
</filter>
<linearGradient id="paint0_linear_654_38" x1="205.25" y1="-46.1932" x2="719.75" y2="-36.1932" gradientUnits="userSpaceOnUse">
<stop stop-color="white"/>
<stop offset="1"/>
</linearGradient>
<linearGradient id="paint1_linear_654_38" x1="227.249" y1="-59.1932" x2="741.749" y2="-49.1932" gradientUnits="userSpaceOnUse">
<stop stop-color="white"/>
<stop offset="1"/>
</linearGradient>
</defs>
</svg>
